<?xml version="1.0" encoding="UTF-8"?>
<svg id="Calque_1" xmlns="http://www.w3.org/2000/svg" version="1.1" viewBox="0 0 780 240">
  <!-- Generator: Adobe Illustrator 30.2.1, SVG Export Plug-In . SVG Version: 2.1.1 Build 1)  -->
  <defs>
    <style>
      .st0 {
        fill: #010101;
      }
    </style>
  </defs>
  <g>
    <rect class="st0" x="18.85" y="185.38" width="26.15" height="26.15" transform="translate(-166.53 230.38) rotate(-90)"/>
    <rect class="st0" x="45" y="159.23" width="26.15" height="26.15" transform="translate(-114.23 230.38) rotate(-90)"/>
    <rect class="st0" x="84.23" y="172.31" width="52.31" height="26.15" transform="translate(-75 295.76) rotate(-90)"/>
    <rect class="st0" x="18.85" y="28.47" width="26.15" height="26.15"/>
    <rect class="st0" x="45" y="54.29" width="26.15" height="26.15"/>
    <rect class="st0" x="18.85" y="106.92" width="52.31" height="26.15"/>
    <rect class="st0" x="175.76" y="28.47" width="26.15" height="26.15" transform="translate(230.38 -147.3) rotate(90)"/>
    <rect class="st0" x="84.23" y="41.54" width="52.31" height="26.15" transform="translate(165 -55.76) rotate(90)"/>
    <rect class="st0" x="175.76" y="185.38" width="26.15" height="26.15" transform="translate(377.68 396.92) rotate(180)"/>
    <rect class="st0" x="149.61" y="159.23" width="26.15" height="26.15" transform="translate(325.38 344.61) rotate(180)"/>
    <rect class="st0" x="149.61" y="106.92" width="52.31" height="26.15" transform="translate(351.53 240) rotate(180)"/>
    <rect class="st0" x="149.61" y="54.62" width="26.15" height="26.15"/>
    <rect class="st0" x="97.31" y="106.92" width="26.15" height="26.15" transform="translate(230.38 9.62) rotate(90)"/>
  </g>
  <g>
    <path class="st0" d="M260.84,57.09h36.44l34.03,93.03h.56l33.66-93.03h36.62v130.95h-23.12v-105.24h-.37l-39.77,105.24h-16.28l-39.21-105.24h-.37v105.24h-22.2V57.09Z"/>
    <path class="st0" d="M509.98,144.76v2.96c0,.99-.06,1.97-.19,2.96h-67.51c.24,3.21,1.08,6.14,2.49,8.79,1.42,2.65,3.3,4.93,5.64,6.84,2.34,1.91,4.99,3.42,7.95,4.53,2.96,1.11,6.04,1.66,9.25,1.66,5.55,0,10.23-1.02,14.06-3.05,3.82-2.04,6.97-4.84,9.43-8.42l14.8,11.84c-8.76,11.84-21.46,17.76-38.1,17.76-6.91,0-13.26-1.08-19.05-3.24-5.8-2.16-10.82-5.21-15.07-9.15-4.26-3.95-7.58-8.79-9.99-14.52-2.41-5.73-3.61-12.24-3.61-19.51s1.2-13.65,3.61-19.51c2.4-5.86,5.7-10.85,9.89-14.98,4.19-4.13,9.16-7.33,14.89-9.62,5.73-2.28,11.93-3.42,18.59-3.42,6.16,0,11.87,1.02,17.11,3.05,5.24,2.04,9.77,5.06,13.6,9.06,3.82,4.01,6.81,9,8.97,14.98,2.16,5.98,3.24,12.98,3.24,20.99ZM487.79,134.77c0-2.83-.4-5.55-1.2-8.14-.8-2.59-2.06-4.87-3.79-6.84-1.73-1.97-3.91-3.54-6.57-4.72-2.65-1.17-5.77-1.76-9.34-1.76-6.66,0-12.3,2.01-16.92,6.01-4.62,4.01-7.19,9.16-7.68,15.44h45.5Z"/>
    <path class="st0" d="M526.81,99.26h21.27v14.8h.37c2.47-5.18,5.92-9.37,10.36-12.58,4.44-3.2,9.62-4.81,15.54-4.81.86,0,1.79.03,2.77.09.99.06,1.85.22,2.59.46v20.35c-1.48-.37-2.75-.62-3.79-.74-1.05-.12-2.07-.18-3.05-.18-5.06,0-9.13.92-12.21,2.77-3.08,1.85-5.49,4.07-7.21,6.66-1.73,2.59-2.9,5.24-3.51,7.95-.62,2.71-.92,4.87-.92,6.47v47.54h-22.2v-88.78Z"/>
    <path class="st0" d="M589.88,48.21h22.2v139.83h-22.2V48.21Z"/>
    <path class="st0" d="M631.68,69.11c0-3.57,1.33-6.69,3.98-9.34,2.65-2.65,6.01-3.98,10.08-3.98s7.49,1.27,10.26,3.79c2.77,2.53,4.16,5.71,4.16,9.53s-1.39,7-4.16,9.53c-2.77,2.53-6.19,3.79-10.26,3.79s-7.43-1.32-10.08-3.98c-2.65-2.65-3.98-5.76-3.98-9.34ZM634.82,99.26h22.2v88.78h-22.2v-88.78Z"/>
    <path class="st0" d="M679.4,99.26h21.09v14.24h.37c1.97-4.44,5.39-8.35,10.26-11.74,4.87-3.39,10.64-5.09,17.3-5.09,5.79,0,10.76,1.02,14.89,3.05,4.13,2.04,7.52,4.72,10.17,8.05,2.65,3.33,4.59,7.15,5.83,11.47,1.23,4.32,1.85,8.76,1.85,13.32v55.49h-22.2v-49.2c0-2.59-.19-5.3-.55-8.14-.37-2.83-1.18-5.39-2.41-7.68-1.23-2.28-2.93-4.16-5.09-5.64-2.16-1.48-5.02-2.22-8.6-2.22s-6.66.71-9.25,2.13c-2.59,1.42-4.72,3.24-6.38,5.46-1.66,2.22-2.93,4.78-3.79,7.68-.87,2.9-1.3,5.83-1.3,8.78v48.83h-22.2v-88.78Z"/>
  </g>
</svg>