<?xml version="1.0" encoding="UTF-8"?>
<svg xmlns="http://www.w3.org/2000/svg" viewBox="0 240" width="240" height="240">
  <rect width="240" height="240" rx="48" fill="#0a0a0f"/>
  <g transform="translate(10, 0)">
    <rect fill="#fff" x="18.85" y="185.38" width="26.15" height="26.15" transform="translate(-166.53 230.38) rotate(-90)"/>
    <rect fill="#fff" x="45" y="159.23" width="26.15" height="26.15" transform="translate(-114.23 230.38) rotate(-90)"/>
    <rect fill="#fff" x="84.23" y="172.31" width="52.31" height="26.15" transform="translate(-75 295.76) rotate(-90)"/>
    <rect fill="#fff" x="18.85" y="28.47" width="26.15" height="26.15"/>
    <rect fill="#fff" x="45" y="54.29" width="26.15" height="26.15"/>
    <rect fill="#fff" x="18.85" y="106.92" width="52.31" height="26.15"/>
    <rect fill="#fff" x="175.76" y="28.47" width="26.15" height="26.15" transform="translate(230.38 -147.3) rotate(90)"/>
    <rect fill="#fff" x="84.23" y="41.54" width="52.31" height="26.15" transform="translate(165 -55.76) rotate(90)"/>
    <rect fill="#fff" x="175.76" y="185.38" width="26.15" height="26.15" transform="translate(377.68 396.92) rotate(180)"/>
    <rect fill="#fff" x="149.61" y="159.23" width="26.15" height="26.15" transform="translate(325.38 344.61) rotate(180)"/>
    <rect fill="#fff" x="149.61" y="106.92" width="52.31" height="26.15" transform="translate(351.53 240) rotate(180)"/>
    <rect fill="#fff" x="149.61" y="54.62" width="26.15" height="26.15"/>
    <rect fill="#fff" x="97.31" y="106.92" width="26.15" height="26.15" transform="translate(230.38 9.62) rotate(90)"/>
  </g>
</svg>
